ply
format ascii 1.0
comment Created by Blender 2.79 (sub 0) - www.blender.org, source file: ''
element vertex 240
property float x
property float y
property float z
property float nx
property float ny
property float nz
element face 80
property list uchar uint vertex_indices
end_header
0.000000 0.000000 -5.000000 0.102381 -0.315090 -0.943524
2.126614 -1.545057 -4.253271 0.102381 -0.315090 -0.943524
-0.812278 -2.499976 -4.253272 0.102381 -0.315090 -0.943524
3.618037 -2.628627 -2.236098 0.700224 -0.268032 -0.661699
2.126614 -1.545057 -4.253271 0.700224 -0.268032 -0.661699
4.253239 0.000000 -2.628680 0.700224 -0.268032 -0.661699
0.000000 0.000000 -5.000000 -0.268034 -0.194737 -0.943523
-0.812278 -2.499976 -4.253272 -0.268034 -0.194737 -0.943523
-2.628649 0.000000 -4.253258 -0.268034 -0.194737 -0.943523
0.000000 0.000000 -5.000000 -0.268034 0.194737 -0.943523
-2.628649 0.000000 -4.253258 -0.268034 0.194737 -0.943523
-0.812278 2.499976 -4.253272 -0.268034 0.194737 -0.943523
0.000000 0.000000 -5.000000 0.102381 0.315090 -0.943524
-0.812278 2.499976 -4.253272 0.102381 0.315090 -0.943524
2.126614 1.545057 -4.253271 0.102381 0.315090 -0.943524
3.618037 -2.628627 -2.236098 0.904989 -0.268031 -0.330385
4.253239 0.000000 -2.628680 0.904989 -0.268031 -0.330385
4.755290 -1.545063 0.000000 0.904989 -0.268031 -0.330385
-1.381940 -4.253246 -2.236099 0.024746 -0.943521 -0.330386
1.314344 -4.045058 -2.628689 0.024746 -0.943521 -0.330386
0.000000 -5.000000 0.000000 0.024746 -0.943521 -0.330386
-4.472131 0.000000 -2.236078 -0.889697 -0.315094 -0.330385
-3.440947 -2.499985 -2.628681 -0.889697 -0.315094 -0.330385
-4.755290 -1.545063 0.000000 -0.889697 -0.315094 -0.330385
-1.381940 4.253246 -2.236099 -0.574602 0.748784 -0.330388
-3.440947 2.499985 -2.628681 -0.574602 0.748784 -0.330388
-2.938928 4.045084 0.000000 -0.574602 0.748784 -0.330388
3.618037 2.628627 -2.236098 0.534576 0.777865 -0.330386
1.314344 4.045058 -2.628689 0.534576 0.777865 -0.330386
2.938928 4.045084 0.000000 0.534576 0.777865 -0.330386
3.618037 -2.628627 -2.236098 0.802609 -0.583126 -0.125627
4.755290 -1.545063 0.000000 0.802609 -0.583126 -0.125627
2.938928 -4.045084 0.000000 0.802609 -0.583126 -0.125627
-1.381940 -4.253246 -2.236099 -0.306569 -0.943521 -0.125629
0.000000 -5.000000 0.000000 -0.306569 -0.943521 -0.125629
-2.938928 -4.045084 0.000000 -0.306569 -0.943521 -0.125629
-4.472131 0.000000 -2.236078 -0.992077 -0.000000 -0.125629
-4.755290 -1.545063 0.000000 -0.992077 -0.000000 -0.125629
-4.755290 1.545063 0.000000 -0.992077 -0.000000 -0.125629
-1.381940 4.253246 -2.236099 -0.306569 0.943521 -0.125629
-2.938928 4.045084 0.000000 -0.306569 0.943521 -0.125629
0.000000 5.000000 0.000000 -0.306569 0.943521 -0.125629
3.618037 2.628627 -2.236098 0.802609 0.583127 -0.125627
2.938928 4.045084 0.000000 0.802609 0.583127 -0.125627
4.755290 1.545063 0.000000 0.802609 0.583127 -0.125627
1.381940 -4.253246 2.236099 0.408946 -0.628425 0.661699
3.440947 -2.499985 2.628681 0.408946 -0.628425 0.661699
0.812278 -2.499976 4.253272 0.408946 -0.628425 0.661699
-3.618037 -2.628627 2.236098 -0.471300 -0.583122 0.661699
-1.314344 -4.045058 2.628689 -0.471300 -0.583122 0.661699
-2.126614 -1.545057 4.253271 -0.471300 -0.583122 0.661699
-3.618037 2.628627 2.236098 -0.700224 0.268032 0.661699
-4.253239 0.000000 2.628680 -0.700224 0.268032 0.661699
-2.126614 1.545057 4.253271 -0.700224 0.268032 0.661699
1.381940 4.253246 2.236099 0.038531 0.748779 0.661699
-1.314344 4.045058 2.628689 0.038531 0.748779 0.661699
0.812278 2.499976 4.253272 0.038531 0.748779 0.661699
4.472131 0.000000 2.236078 0.724042 0.194736 0.661695
3.440947 2.499985 2.628681 0.724042 0.194736 0.661695
2.628649 0.000000 4.253258 0.724042 0.194736 0.661695
2.628649 0.000000 4.253258 0.268034 0.194737 0.943523
0.812278 2.499976 4.253272 0.268034 0.194737 0.943523
0.000000 0.000000 5.000000 0.268034 0.194737 0.943523
2.628649 0.000000 4.253258 0.491119 0.356821 0.794658
3.440947 2.499985 2.628681 0.491119 0.356821 0.794658
0.812278 2.499976 4.253272 0.491119 0.356821 0.794658
3.440947 2.499985 2.628681 0.408946 0.628425 0.661699
1.381940 4.253246 2.236099 0.408946 0.628425 0.661699
0.812278 2.499976 4.253272 0.408946 0.628425 0.661699
0.812278 2.499976 4.253272 -0.102381 0.315090 0.943524
-2.126614 1.545057 4.253271 -0.102381 0.315090 0.943524
0.000000 0.000000 5.000000 -0.102381 0.315090 0.943524
0.812278 2.499976 4.253272 -0.187594 0.577345 0.794658
-1.314344 4.045058 2.628689 -0.187594 0.577345 0.794658
-2.126614 1.545057 4.253271 -0.187594 0.577345 0.794658
-1.314344 4.045058 2.628689 -0.471300 0.583122 0.661699
-3.618037 2.628627 2.236098 -0.471300 0.583122 0.661699
-2.126614 1.545057 4.253271 -0.471300 0.583122 0.661699
-2.126614 1.545057 4.253271 -0.331304 0.000000 0.943524
-2.126614 -1.545057 4.253271 -0.331304 0.000000 0.943524
0.000000 0.000000 5.000000 -0.331304 0.000000 0.943524
-2.126614 1.545057 4.253271 -0.607061 0.000000 0.794656
-4.253239 0.000000 2.628680 -0.607061 0.000000 0.794656
-2.126614 -1.545057 4.253271 -0.607061 0.000000 0.794656
-4.253239 0.000000 2.628680 -0.700224 -0.268032 0.661699
-3.618037 -2.628627 2.236098 -0.700224 -0.268032 0.661699
-2.126614 -1.545057 4.253271 -0.700224 -0.268032 0.661699
-2.126614 -1.545057 4.253271 -0.102381 -0.315090 0.943524
0.812278 -2.499976 4.253272 -0.102381 -0.315090 0.943524
0.000000 0.000000 5.000000 -0.102381 -0.315090 0.943524
-2.126614 -1.545057 4.253271 -0.187594 -0.577345 0.794658
-1.314344 -4.045058 2.628689 -0.187594 -0.577345 0.794658
0.812278 -2.499976 4.253272 -0.187594 -0.577345 0.794658
-1.314344 -4.045058 2.628689 0.038531 -0.748779 0.661699
1.381940 -4.253246 2.236099 0.038531 -0.748779 0.661699
0.812278 -2.499976 4.253272 0.038531 -0.748779 0.661699
0.812278 -2.499976 4.253272 0.268034 -0.194737 0.943523
2.628649 0.000000 4.253258 0.268034 -0.194737 0.943523
0.000000 0.000000 5.000000 0.268034 -0.194737 0.943523
0.812278 -2.499976 4.253272 0.491119 -0.356821 0.794658
3.440947 -2.499985 2.628681 0.491119 -0.356821 0.794658
2.628649 0.000000 4.253258 0.491119 -0.356821 0.794658
3.440947 -2.499985 2.628681 0.724042 -0.194736 0.661695
4.472131 0.000000 2.236078 0.724042 -0.194736 0.661695
2.628649 0.000000 4.253258 0.724042 -0.194736 0.661695
4.755290 1.545063 0.000000 0.889697 0.315094 0.330385
3.440947 2.499985 2.628681 0.889697 0.315094 0.330385
4.472131 0.000000 2.236078 0.889697 0.315094 0.330385
4.755290 1.545063 0.000000 0.794656 0.577348 0.187595
2.938928 4.045084 0.000000 0.794656 0.577348 0.187595
3.440947 2.499985 2.628681 0.794656 0.577348 0.187595
2.938928 4.045084 0.000000 0.574602 0.748784 0.330388
1.381940 4.253246 2.236099 0.574602 0.748784 0.330388
3.440947 2.499985 2.628681 0.574602 0.748784 0.330388
0.000000 5.000000 0.000000 -0.024746 0.943521 0.330386
-1.314344 4.045058 2.628689 -0.024746 0.943521 0.330386
1.381940 4.253246 2.236099 -0.024746 0.943521 0.330386
0.000000 5.000000 0.000000 -0.303531 0.934171 0.187597
-2.938928 4.045084 0.000000 -0.303531 0.934171 0.187597
-1.314344 4.045058 2.628689 -0.303531 0.934171 0.187597
-2.938928 4.045084 0.000000 -0.534576 0.777865 0.330387
-3.618037 2.628627 2.236098 -0.534576 0.777865 0.330387
-1.314344 4.045058 2.628689 -0.534576 0.777865 0.330387
-4.755290 1.545063 0.000000 -0.904989 0.268031 0.330385
-4.253239 0.000000 2.628680 -0.904989 0.268031 0.330385
-3.618037 2.628627 2.236098 -0.904989 0.268031 0.330385
-4.755290 1.545063 0.000000 -0.982246 0.000000 0.187599
-4.755290 -1.545063 0.000000 -0.982246 0.000000 0.187599
-4.253239 0.000000 2.628680 -0.982246 0.000000 0.187599
-4.755290 -1.545063 0.000000 -0.904989 -0.268031 0.330385
-3.618037 -2.628627 2.236098 -0.904989 -0.268031 0.330385
-4.253239 0.000000 2.628680 -0.904989 -0.268031 0.330385
-2.938928 -4.045084 0.000000 -0.534576 -0.777865 0.330386
-1.314344 -4.045058 2.628689 -0.534576 -0.777865 0.330386
-3.618037 -2.628627 2.236098 -0.534576 -0.777865 0.330386
-2.938928 -4.045084 0.000000 -0.303531 -0.934171 0.187597
0.000000 -5.000000 0.000000 -0.303531 -0.934171 0.187597
-1.314344 -4.045058 2.628689 -0.303531 -0.934171 0.187597
0.000000 -5.000000 0.000000 -0.024746 -0.943521 0.330386
1.381940 -4.253246 2.236099 -0.024746 -0.943521 0.330386
-1.314344 -4.045058 2.628689 -0.024746 -0.943521 0.330386
2.938928 -4.045084 0.000000 0.574602 -0.748784 0.330388
3.440947 -2.499985 2.628681 0.574602 -0.748784 0.330388
1.381940 -4.253246 2.236099 0.574602 -0.748784 0.330388
2.938928 -4.045084 0.000000 0.794656 -0.577348 0.187595
4.755290 -1.545063 0.000000 0.794656 -0.577348 0.187595
3.440947 -2.499985 2.628681 0.794656 -0.577348 0.187595
4.755290 -1.545063 0.000000 0.889697 -0.315094 0.330385
4.472131 0.000000 2.236078 0.889697 -0.315094 0.330385
3.440947 -2.499985 2.628681 0.889697 -0.315094 0.330385
2.938928 4.045084 0.000000 0.306569 0.943521 0.125629
0.000000 5.000000 0.000000 0.306569 0.943521 0.125629
1.381940 4.253246 2.236099 0.306569 0.943521 0.125629
2.938928 4.045084 0.000000 0.303531 0.934171 -0.187597
1.314344 4.045058 -2.628689 0.303531 0.934171 -0.187597
0.000000 5.000000 0.000000 0.303531 0.934171 -0.187597
1.314344 4.045058 -2.628689 0.024746 0.943521 -0.330386
-1.381940 4.253246 -2.236099 0.024746 0.943521 -0.330386
0.000000 5.000000 0.000000 0.024746 0.943521 -0.330386
-2.938928 4.045084 0.000000 -0.802609 0.583126 0.125627
-4.755290 1.545063 0.000000 -0.802609 0.583126 0.125627
-3.618037 2.628627 2.236098 -0.802609 0.583126 0.125627
-2.938928 4.045084 0.000000 -0.794656 0.577348 -0.187595
-3.440947 2.499985 -2.628681 -0.794656 0.577348 -0.187595
-4.755290 1.545063 0.000000 -0.794656 0.577348 -0.187595
-3.440947 2.499985 -2.628681 -0.889697 0.315094 -0.330385
-4.472131 0.000000 -2.236078 -0.889697 0.315094 -0.330385
-4.755290 1.545063 0.000000 -0.889697 0.315094 -0.330385
-4.755290 -1.545063 0.000000 -0.802609 -0.583127 0.125627
-2.938928 -4.045084 0.000000 -0.802609 -0.583127 0.125627
-3.618037 -2.628627 2.236098 -0.802609 -0.583127 0.125627
-4.755290 -1.545063 0.000000 -0.794656 -0.577348 -0.187595
-3.440947 -2.499985 -2.628681 -0.794656 -0.577348 -0.187595
-2.938928 -4.045084 0.000000 -0.794656 -0.577348 -0.187595
-3.440947 -2.499985 -2.628681 -0.574602 -0.748784 -0.330388
-1.381940 -4.253246 -2.236099 -0.574602 -0.748784 -0.330388
-2.938928 -4.045084 0.000000 -0.574602 -0.748784 -0.330388
0.000000 -5.000000 0.000000 0.306569 -0.943521 0.125629
2.938928 -4.045084 0.000000 0.306569 -0.943521 0.125629
1.381940 -4.253246 2.236099 0.306569 -0.943521 0.125629
0.000000 -5.000000 0.000000 0.303531 -0.934171 -0.187597
1.314344 -4.045058 -2.628689 0.303531 -0.934171 -0.187597
2.938928 -4.045084 0.000000 0.303531 -0.934171 -0.187597
1.314344 -4.045058 -2.628689 0.534576 -0.777865 -0.330387
3.618037 -2.628627 -2.236098 0.534576 -0.777865 -0.330387
2.938928 -4.045084 0.000000 0.534576 -0.777865 -0.330387
4.755290 -1.545063 0.000000 0.992077 0.000000 0.125629
4.755290 1.545063 0.000000 0.992077 0.000000 0.125629
4.472131 0.000000 2.236078 0.992077 0.000000 0.125629
4.755290 -1.545063 0.000000 0.982246 0.000000 -0.187599
4.253239 0.000000 -2.628680 0.982246 0.000000 -0.187599
4.755290 1.545063 0.000000 0.982246 0.000000 -0.187599
4.253239 0.000000 -2.628680 0.904989 0.268031 -0.330385
3.618037 2.628627 -2.236098 0.904989 0.268031 -0.330385
4.755290 1.545063 0.000000 0.904989 0.268031 -0.330385
2.126614 1.545057 -4.253271 0.471300 0.583122 -0.661699
1.314344 4.045058 -2.628689 0.471300 0.583122 -0.661699
3.618037 2.628627 -2.236098 0.471300 0.583122 -0.661699
2.126614 1.545057 -4.253271 0.187594 0.577345 -0.794658
-0.812278 2.499976 -4.253272 0.187594 0.577345 -0.794658
1.314344 4.045058 -2.628689 0.187594 0.577345 -0.794658
-0.812278 2.499976 -4.253272 -0.038531 0.748779 -0.661699
-1.381940 4.253246 -2.236099 -0.038531 0.748779 -0.661699
1.314344 4.045058 -2.628689 -0.038531 0.748779 -0.661699
-0.812278 2.499976 -4.253272 -0.408946 0.628425 -0.661699
-3.440947 2.499985 -2.628681 -0.408946 0.628425 -0.661699
-1.381940 4.253246 -2.236099 -0.408946 0.628425 -0.661699
-0.812278 2.499976 -4.253272 -0.491119 0.356821 -0.794658
-2.628649 0.000000 -4.253258 -0.491119 0.356821 -0.794658
-3.440947 2.499985 -2.628681 -0.491119 0.356821 -0.794658
-2.628649 0.000000 -4.253258 -0.724042 0.194736 -0.661695
-4.472131 0.000000 -2.236078 -0.724042 0.194736 -0.661695
-3.440947 2.499985 -2.628681 -0.724042 0.194736 -0.661695
-2.628649 0.000000 -4.253258 -0.724042 -0.194736 -0.661695
-3.440947 -2.499985 -2.628681 -0.724042 -0.194736 -0.661695
-4.472131 0.000000 -2.236078 -0.724042 -0.194736 -0.661695
-2.628649 0.000000 -4.253258 -0.491119 -0.356821 -0.794658
-0.812278 -2.499976 -4.253272 -0.491119 -0.356821 -0.794658
-3.440947 -2.499985 -2.628681 -0.491119 -0.356821 -0.794658
-0.812278 -2.499976 -4.253272 -0.408946 -0.628425 -0.661699
-1.381940 -4.253246 -2.236099 -0.408946 -0.628425 -0.661699
-3.440947 -2.499985 -2.628681 -0.408946 -0.628425 -0.661699
4.253239 0.000000 -2.628680 0.700224 0.268032 -0.661699
2.126614 1.545057 -4.253271 0.700224 0.268032 -0.661699
3.618037 2.628627 -2.236098 0.700224 0.268032 -0.661699
4.253239 0.000000 -2.628680 0.607061 0.000000 -0.794656
2.126614 -1.545057 -4.253271 0.607061 0.000000 -0.794656
2.126614 1.545057 -4.253271 0.607061 0.000000 -0.794656
2.126614 -1.545057 -4.253271 0.331304 0.000000 -0.943524
0.000000 0.000000 -5.000000 0.331304 0.000000 -0.943524
2.126614 1.545057 -4.253271 0.331304 0.000000 -0.943524
-0.812278 -2.499976 -4.253272 -0.038531 -0.748779 -0.661699
1.314344 -4.045058 -2.628689 -0.038531 -0.748779 -0.661699
-1.381940 -4.253246 -2.236099 -0.038531 -0.748779 -0.661699
-0.812278 -2.499976 -4.253272 0.187594 -0.577345 -0.794658
2.126614 -1.545057 -4.253271 0.187594 -0.577345 -0.794658
1.314344 -4.045058 -2.628689 0.187594 -0.577345 -0.794658
2.126614 -1.545057 -4.253271 0.471300 -0.583122 -0.661699
3.618037 -2.628627 -2.236098 0.471300 -0.583122 -0.661699
1.314344 -4.045058 -2.628689 0.471300 -0.583122 -0.661699
3 0 1 2
3 3 4 5
3 6 7 8
3 9 10 11
3 12 13 14
3 15 16 17
3 18 19 20
3 21 22 23
3 24 25 26
3 27 28 29
3 30 31 32
3 33 34 35
3 36 37 38
3 39 40 41
3 42 43 44
3 45 46 47
3 48 49 50
3 51 52 53
3 54 55 56
3 57 58 59
3 60 61 62
3 63 64 65
3 66 67 68
3 69 70 71
3 72 73 74
3 75 76 77
3 78 79 80
3 81 82 83
3 84 85 86
3 87 88 89
3 90 91 92
3 93 94 95
3 96 97 98
3 99 100 101
3 102 103 104
3 105 106 107
3 108 109 110
3 111 112 113
3 114 115 116
3 117 118 119
3 120 121 122
3 123 124 125
3 126 127 128
3 129 130 131
3 132 133 134
3 135 136 137
3 138 139 140
3 141 142 143
3 144 145 146
3 147 148 149
3 150 151 152
3 153 154 155
3 156 157 158
3 159 160 161
3 162 163 164
3 165 166 167
3 168 169 170
3 171 172 173
3 174 175 176
3 177 178 179
3 180 181 182
3 183 184 185
3 186 187 188
3 189 190 191
3 192 193 194
3 195 196 197
3 198 199 200
3 201 202 203
3 204 205 206
3 207 208 209
3 210 211 212
3 213 214 215
3 216 217 218
3 219 220 221
3 222 223 224
3 225 226 227
3 228 229 230
3 231 232 233
3 234 235 236
3 237 238 239
