solid Exported from Blender-2.79 (sub 0)
facet normal 0.187597 -0.577354 -0.794651
outer loop
vertex 0.000000 0.000000 -5.000000
vertex 3.618000 -2.628600 -2.236075
vertex -1.381925 -4.253200 -2.236075
endloop
endfacet
facet normal 0.607065 0.000000 -0.794652
outer loop
vertex 3.618000 -2.628600 -2.236075
vertex 0.000000 0.000000 -5.000000
vertex 3.618000 2.628600 -2.236075
endloop
endfacet
facet normal -0.491122 -0.356829 -0.794652
outer loop
vertex 0.000000 0.000000 -5.000000
vertex -1.381925 -4.253200 -2.236075
vertex -4.472125 0.000000 -2.236075
endloop
endfacet
facet normal -0.491122 0.356829 -0.794652
outer loop
vertex 0.000000 0.000000 -5.000000
vertex -4.472125 0.000000 -2.236075
vertex -1.381925 4.253200 -2.236075
endloop
endfacet
facet normal 0.187597 0.577354 -0.794651
outer loop
vertex 0.000000 0.000000 -5.000000
vertex -1.381925 4.253200 -2.236075
vertex 3.618000 2.628600 -2.236075
endloop
endfacet
facet normal 0.982246 0.000000 -0.187597
outer loop
vertex 3.618000 -2.628600 -2.236075
vertex 3.618000 2.628600 -2.236075
vertex 4.472125 0.000000 2.236075
endloop
endfacet
facet normal 0.303536 -0.934171 -0.187589
outer loop
vertex -1.381925 -4.253200 -2.236075
vertex 3.618000 -2.628600 -2.236075
vertex 1.381925 -4.253200 2.236075
endloop
endfacet
facet normal -0.794649 -0.577359 -0.187587
outer loop
vertex -4.472125 0.000000 -2.236075
vertex -1.381925 -4.253200 -2.236075
vertex -3.618000 -2.628600 2.236075
endloop
endfacet
facet normal -0.794649 0.577359 -0.187587
outer loop
vertex -1.381925 4.253200 -2.236075
vertex -4.472125 0.000000 -2.236075
vertex -3.618000 2.628600 2.236075
endloop
endfacet
facet normal 0.303536 0.934171 -0.187589
outer loop
vertex 3.618000 2.628600 -2.236075
vertex -1.381925 4.253200 -2.236075
vertex 1.381925 4.253200 2.236075
endloop
endfacet
facet normal 0.794649 -0.577359 0.187587
outer loop
vertex 3.618000 -2.628600 -2.236075
vertex 4.472125 0.000000 2.236075
vertex 1.381925 -4.253200 2.236075
endloop
endfacet
facet normal -0.303536 -0.934171 0.187589
outer loop
vertex -1.381925 -4.253200 -2.236075
vertex 1.381925 -4.253200 2.236075
vertex -3.618000 -2.628600 2.236075
endloop
endfacet
facet normal -0.982246 0.000000 0.187597
outer loop
vertex -4.472125 0.000000 -2.236075
vertex -3.618000 -2.628600 2.236075
vertex -3.618000 2.628600 2.236075
endloop
endfacet
facet normal -0.303536 0.934171 0.187589
outer loop
vertex -1.381925 4.253200 -2.236075
vertex -3.618000 2.628600 2.236075
vertex 1.381925 4.253200 2.236075
endloop
endfacet
facet normal 0.794649 0.577359 0.187587
outer loop
vertex 3.618000 2.628600 -2.236075
vertex 1.381925 4.253200 2.236075
vertex 4.472125 0.000000 2.236075
endloop
endfacet
facet normal 0.491122 -0.356829 0.794652
outer loop
vertex 1.381925 -4.253200 2.236075
vertex 4.472125 0.000000 2.236075
vertex 0.000000 0.000000 5.000000
endloop
endfacet
facet normal -0.187597 -0.577354 0.794651
outer loop
vertex -3.618000 -2.628600 2.236075
vertex 1.381925 -4.253200 2.236075
vertex 0.000000 0.000000 5.000000
endloop
endfacet
facet normal -0.607065 0.000000 0.794652
outer loop
vertex -3.618000 2.628600 2.236075
vertex -3.618000 -2.628600 2.236075
vertex 0.000000 0.000000 5.000000
endloop
endfacet
facet normal -0.187597 0.577354 0.794651
outer loop
vertex 1.381925 4.253200 2.236075
vertex -3.618000 2.628600 2.236075
vertex 0.000000 0.000000 5.000000
endloop
endfacet
facet normal 0.491122 0.356829 0.794652
outer loop
vertex 4.472125 0.000000 2.236075
vertex 1.381925 4.253200 2.236075
vertex 0.000000 0.000000 5.000000
endloop
endfacet
endsolid Exported from Blender-2.79 (sub 0)
